<svg width="24" height="24" viewBox="0 0 24 24" fill="none" xmlns="http://www.w3.org/2000/svg">
<g id="Property 1=menu, Property 3=credit">
<g id="Activity">
<circle id="Ellipse_741" cx="19.9954" cy="4.20027" r="1.9222" stroke="#919CB8" stroke-width="1.5" stroke-linecap="round" stroke-linejoin="round"/>
<path id="Path" d="M14.9245 3.12018H7.65679C4.64535 3.12018 2.77808 5.2529 2.77808 8.26434V16.3467C2.77808 19.3582 4.60874 21.4817 7.65679 21.4817H16.2609C19.2724 21.4817 21.1396 19.3582 21.1396 16.3467V9.30782" stroke="#919CB8" stroke-width="1.5" stroke-linecap="round" stroke-linejoin="round"/>
</g>
<path id="&#226;&#130;&#180;" opacity="0.4" d="M14.6699 12.323V13.3883H11.8177C11.7108 13.4952 11.6154 13.6365 11.5314 13.8121C11.455 13.9878 11.4168 14.152 11.4168 14.3047C11.4168 14.5032 11.5008 14.6636 11.6688 14.7858C11.8368 14.9003 12.127 14.9576 12.5394 14.9576C12.9441 14.9576 13.2648 14.9232 13.5016 14.8545C13.7459 14.7781 13.9521 14.6941 14.1201 14.6025L14.4523 15.725C14.2614 15.832 13.9941 15.9312 13.6505 16.0229C13.3068 16.1145 12.8219 16.1603 12.1957 16.1603C11.4779 16.1603 10.9281 16.0229 10.5463 15.748C10.1645 15.473 9.97356 15.0607 9.97356 14.5109C9.97356 14.3887 9.98502 14.2703 10.0079 14.1558C10.0385 14.0336 10.0728 13.9229 10.111 13.8236C10.1568 13.7167 10.1988 13.6289 10.237 13.5601C10.2828 13.4914 10.321 13.4341 10.3516 13.3883H9.51538V12.323H14.6699ZM9.51538 11.6701V10.6049H12.379C12.4936 10.498 12.5928 10.3567 12.6768 10.181C12.7608 10.0054 12.8028 9.83359 12.8028 9.66559C12.8028 9.23796 12.4974 9.02414 11.8865 9.02414C11.581 9.02414 11.3176 9.0585 11.0961 9.12723C10.8823 9.18832 10.6837 9.26468 10.5005 9.35632L10.0767 8.23377C10.1988 8.17268 10.321 8.11923 10.4432 8.07341C10.573 8.01996 10.7143 7.97414 10.867 7.93596C11.0197 7.89777 11.1992 7.87105 11.4054 7.85578C11.6192 7.83287 11.875 7.82141 12.1728 7.82141C12.8448 7.82141 13.3565 7.94741 13.7077 8.19941C14.059 8.45141 14.2347 8.83705 14.2347 9.35632C14.2347 9.60068 14.185 9.84123 14.0857 10.078C13.9941 10.307 13.891 10.4827 13.7765 10.6049H14.6699V11.6701H9.51538Z" fill="#919CB8"/>
</g>
</svg>
