<svg width="24" height="24" viewBox="0 0 24 24" fill="none" xmlns="http://www.w3.org/2000/svg">
<path opacity="0.4" fill-rule="evenodd" clip-rule="evenodd" d="M21.5241 9.75286C20.885 5.81946 17.544 2.89322 13.5607 2.77803C13.3713 2.77061 13.1867 2.83879 13.0477 2.96757C12.9086 3.09634 12.8264 3.27513 12.8193 3.46453V3.46453V3.5286L13.2678 10.238C13.2972 10.6896 13.6855 11.033 14.1374 11.0069L20.865 10.5584C21.0546 10.5443 21.2308 10.4553 21.3545 10.311C21.4782 10.1666 21.5392 9.97895 21.5241 9.78947V9.75286Z" stroke="#919CB8" stroke-width="1.5" stroke-linecap="round" stroke-linejoin="round"/>
<path d="M8.90163 6.76888C9.32959 6.66988 9.76753 6.88885 9.94511 7.29061C9.99163 7.38511 10.0196 7.48765 10.0275 7.59267C10.119 8.89245 10.3112 11.7391 10.4211 13.2769C10.4398 13.5539 10.5682 13.812 10.7778 13.9941C10.9874 14.1762 11.2609 14.2673 11.5378 14.2471V14.2471L17.1854 13.8993C17.4375 13.8842 17.6847 13.9739 17.8684 14.1472C18.0522 14.3205 18.1561 14.5621 18.1556 14.8146V14.8146C17.9268 18.225 15.4765 21.0761 12.1393 21.8151C8.80214 22.5541 5.3773 21.0041 3.73001 18.0092C3.23826 17.1472 2.92684 16.1943 2.81467 15.2082C2.76672 14.9056 2.74833 14.5991 2.75975 14.2929C2.76947 10.6509 5.32726 7.51284 8.89248 6.76888" stroke="#919CB8" stroke-width="1.5" stroke-linecap="round" stroke-linejoin="round"/>
</svg>
