<svg width="24" height="24" viewBox="0 0 24 24" fill="none" xmlns="http://www.w3.org/2000/svg">
<g id="Property 1=menu, Property 3=iptv">
<g id="Group 3">
<rect id="Rectangle 38" x="1.38098" y="3" width="20.2381" height="17" rx="5" stroke="#919CB8" stroke-width="1.5" stroke-linecap="round" stroke-linejoin="round"/>
<g id="iptv" opacity="0.4">
<path d="M6.38962 13.227C6.38962 13.3374 6.30008 13.427 6.18962 13.427H5.31083C5.20037 13.427 5.11083 13.3374 5.11083 13.227V10.0876C5.11083 9.97718 5.20037 9.88764 5.31083 9.88764H6.18962C6.30008 9.88764 6.38962 9.97718 6.38962 10.0876V13.227ZM5 8.66854C5 8.46929 5.07389 8.30936 5.22166 8.18876C5.36943 8.06292 5.55414 8 5.7758 8C5.97473 8 6.14523 8.06292 6.28732 8.18876C6.42941 8.31461 6.50045 8.47453 6.50045 8.66854C6.50045 8.88352 6.42941 9.05655 6.28732 9.18764C6.14523 9.31873 5.97473 9.38427 5.7758 9.38427C5.54846 9.38427 5.3609 9.32135 5.21313 9.19551C5.07104 9.06442 5 8.88876 5 8.66854Z" fill="#919CB8"/>
<path d="M8.71816 14.8C8.71816 14.9105 8.62862 15 8.51816 15H7.63937C7.52891 15 7.43937 14.9105 7.43937 14.8V10.0876C7.43937 9.97718 7.52891 9.88764 7.63937 9.88764H8.63671C8.68169 9.88764 8.71816 9.92411 8.71816 9.96909C8.71816 10.0401 8.80498 10.0795 8.86378 10.0397C9.10659 9.8754 9.41327 9.79326 9.78382 9.79326C10.2897 9.79326 10.7017 9.96367 11.02 10.3045C11.3383 10.6453 11.4974 11.0779 11.4974 11.6022C11.4974 12.1528 11.307 12.6116 10.9262 12.9787C10.5397 13.3404 10.0424 13.5213 9.43429 13.5213C9.27436 13.5213 9.12884 13.5097 8.99771 13.4865C8.85986 13.462 8.71816 13.5612 8.71816 13.7012V14.8ZM9.38313 10.8944C9.16698 10.8944 8.9648 10.9804 8.77661 11.1524C8.73809 11.1876 8.71816 11.2382 8.71816 11.2904V12.1673C8.71816 12.2408 8.75788 12.3098 8.82622 12.3367C8.96781 12.3924 9.13072 12.4202 9.31493 12.4202C9.57637 12.4202 9.77814 12.3494 9.92023 12.2079C10.0623 12.061 10.1334 11.867 10.1334 11.6258C10.1334 11.4056 10.0652 11.23 9.92875 11.0989C9.79803 10.9625 9.61616 10.8944 9.38313 10.8944Z" fill="#919CB8"/>
<path d="M12.1329 12.082V9.10449C12.1329 8.99404 12.2225 8.90449 12.3329 8.90449H13.2117C13.3222 8.90449 13.4117 8.99404 13.4117 9.10449V9.68764C13.4117 9.7981 13.5013 9.88764 13.6117 9.88764H14.2774C14.3879 9.88764 14.4774 9.97718 14.4774 10.0876V10.7888C14.4774 10.8992 14.3879 10.9888 14.2774 10.9888H13.6117C13.5013 10.9888 13.4117 11.0783 13.4117 11.1888V12.027C13.4117 12.2891 13.4941 12.4202 13.659 12.4202C13.7752 12.4202 13.8949 12.3924 14.018 12.3367C14.1332 12.2847 14.2763 12.3245 14.3256 12.4408L14.555 12.9816C14.5898 13.0637 14.5668 13.16 14.4927 13.2095C14.1813 13.4174 13.7925 13.5213 13.3265 13.5213C12.9116 13.5213 12.6075 13.4034 12.4143 13.1674C12.2267 12.9262 12.1329 12.5644 12.1329 12.082Z" fill="#919CB8"/>
<path d="M17.6023 10.0122C17.6329 9.93687 17.7062 9.88764 17.7875 9.88764H18.6892C18.8347 9.88764 18.9315 10.0381 18.8712 10.1705L17.442 13.3098C17.4096 13.3812 17.3384 13.427 17.26 13.427H16.5499C16.4737 13.427 16.4041 13.3836 16.3704 13.3152L14.8278 10.1758C14.7625 10.0429 14.8592 9.88764 15.0073 9.88764H16.0735C16.1527 9.88764 16.2244 9.93431 16.2564 10.0067L16.6982 11.0045C16.7729 11.1787 17.1228 11.1693 17.2012 10.9966L17.6023 10.0122Z" fill="#919CB8"/>
</g>
</g>
</g>
</svg>
